<?xml version="1.0" encoding="UTF-8" standalone="no"?>
<svg
   xmlns:dc="http://purl.org/dc/elements/1.1/"
   xmlns:cc="http://creativecommons.org/ns#"
   xmlns:rdf="http://www.w3.org/1999/02/22-rdf-syntax-ns#"
   xmlns:svg="http://www.w3.org/2000/svg"
   xmlns="http://www.w3.org/2000/svg"
   width="512"
   height="512"
   viewBox="0 0 135.46666 135.46667"
   version="1.1"
   id="svg8">
  <defs
     id="defs2" />
  <metadata
     id="metadata5">
    <rdf:RDF>
      <cc:Work
         rdf:about="">
        <dc:format>image/svg+xml</dc:format>
        <dc:type
           rdf:resource="http://purl.org/dc/dcmitype/StillImage" />
        <dc:title></dc:title>
      </cc:Work>
    </rdf:RDF>
  </metadata>
  <g
     id="layer1">
    <path
       id="path992"
       style="fill:#ffffff;fill-opacity:1;stroke:none;stroke-width:1.66071;stroke-linecap:round;stroke-miterlimit:4;stroke-dasharray:none;stroke-opacity:1"
       d="m 73.59196,67.73333 a 5.8586307,5.8586307 0 0 1 -5.85863,5.85863 5.8586307,5.8586307 0 0 1 -5.858631,-5.85863 5.8586307,5.8586307 0 0 1 5.858631,-5.858631 5.8586307,5.8586307 0 0 1 5.85863,5.858631 z M 68.862979,17.766874 a 49.979399,49.979399 0 0 1 0.214974,0.0057 49.979399,49.979399 0 0 0 -0.214974,-0.0057 z m 2.210718,0.09922 a 49.979399,49.979399 0 0 1 0.511596,0.03669 49.979399,49.979399 0 0 0 -0.511596,-0.03669 z m 1.451591,0.118339 a 49.979399,49.979399 0 0 1 0.183968,0.01809 49.979399,49.979399 0 0 0 -0.183968,-0.01809 z m 0.925526,0.09767 a 49.979399,49.979399 0 0 1 0.484206,0.0584 49.979399,49.979399 0 0 0 -0.484206,-0.0584 z M 61.118749,18.193721 A 49.979399,49.979399 0 0 0 18.193721,61.118749 H 29.471585 A 38.829101,38.829101 0 0 1 61.118749,29.472101 Z m 13.229167,0 v 11.27838 a 38.829101,38.829101 0 0 1 31.646644,31.646648 h 11.27838 A 49.979399,49.979399 0 0 0 74.347916,18.193721 Z m -7.817094,10.72906 a 38.829101,38.829101 0 0 0 -0.214974,0.0072 38.829101,38.829101 0 0 1 0.214974,-0.0072 z m -0.228928,0.0078 a 38.829101,38.829101 0 0 0 -0.265099,0.01085 38.829101,38.829101 0 0 1 0.265099,-0.01085 z m -0.265099,0.01085 a 38.829101,38.829101 0 0 0 -0.199472,0.0093 38.829101,38.829101 0 0 1 0.199472,-0.0093 z m 2.761073,11.133685 a 27.678803,27.678803 0 0 1 0.152961,0.0062 27.678803,27.678803 0 0 0 -0.152961,-0.0062 z m 0.152961,0.0062 a 27.678803,27.678803 0 0 1 0.227377,0.01085 27.678803,27.678803 0 0 0 -0.227377,-0.01085 z m 0.227377,0.01085 a 27.678803,27.678803 0 0 1 0.219107,0.0124 27.678803,27.678803 0 0 0 -0.219107,-0.0124 z m -3.277319,0.02325 a 27.678803,27.678803 0 0 0 -0.453719,0.03359 27.678803,27.678803 0 0 1 0.453719,-0.03359 z m 4.203361,0.04082 a 27.678803,27.678803 0 0 1 0.188619,0.01705 27.678803,27.678803 0 0 0 -0.188619,-0.01705 z m 0.45992,0.04341 a 27.678803,27.678803 0 0 1 0.183967,0.01912 27.678803,27.678803 0 0 0 -0.183967,-0.01912 z m 1.144116,0.141592 a 27.678803,27.678803 0 0 1 0.185518,0.0279 27.678803,27.678803 0 0 0 -0.185518,-0.0279 z m -9.637138,0.29869 a 27.678803,27.678803 0 0 0 -0.444934,0.09663 27.678803,27.678803 0 0 1 0.444934,-0.09663 z m 11.687659,0.07855 a 27.678803,27.678803 0 0 1 0.146243,0.03307 27.678803,27.678803 0 0 0 -0.146243,-0.03307 z m 0.146243,0.03307 a 27.678803,27.678803 0 0 1 0.221692,0.05168 27.678803,27.678803 0 0 0 -0.221692,-0.05168 z m 0.221692,0.05168 a 27.678803,27.678803 0 0 1 0.221176,0.05323 27.678803,27.678803 0 0 0 -0.221176,-0.05323 z m 0.221176,0.05323 v 11.524361 a 16.717495,16.717495 0 0 1 8.738483,8.737967 H 94.610244 A 27.678803,27.678803 0 0 0 74.347916,40.856421 Z m -13.229167,0 A 27.678803,27.678803 0 0 0 40.856421,61.118749 h 11.523845 a 16.717495,16.717495 0 0 1 8.738483,-8.738483 z M 40.856421,61.118749 a 27.678803,27.678803 0 0 0 -0.05323,0.221176 27.678803,27.678803 0 0 1 0.05323,-0.221176 z m -0.05323,0.221176 a 27.678803,27.678803 0 0 0 -0.05168,0.221692 27.678803,27.678803 0 0 1 0.05168,-0.221692 z m -0.05168,0.221692 a 27.678803,27.678803 0 0 0 -0.04651,0.206705 27.678803,27.678803 0 0 1 0.04651,-0.206705 z M 67.647549,51.016008 a 16.717495,16.717495 0 0 0 -0.629417,0.0155 16.717495,16.717495 0 0 1 0.629417,-0.0155 z M 64.096862,51.4165 a 16.717495,16.717495 0 0 0 -0.238228,0.05478 16.717495,16.717495 0 0 1 0.238228,-0.05478 z m 3.835424,9.80767 a 6.5121374,6.5121374 0 0 1 0.0553,0.0021 6.5121374,6.5121374 0 0 0 -0.0553,-0.0021 z m 0.316778,0.01757 a 6.5121374,6.5121374 0 0 1 0.07958,0.0067 6.5121374,6.5121374 0 0 0 -0.07958,-0.0067 z m -38.807451,0.05271 a 38.829101,38.829101 0 0 0 -0.08578,0.532268 38.829101,38.829101 0 0 1 0.08578,-0.532268 z m 36.618952,0.145212 a 6.5121374,6.5121374 0 0 0 -0.07183,0.01964 6.5121374,6.5121374 0 0 1 0.07183,-0.01964 z m -47.92007,0.09198 a 49.979399,49.979399 0 0 0 -0.0584,0.484206 49.979399,49.979399 0 0 1 0.0584,-0.484206 z m 46.704125,0.365352 a 6.5121374,6.5121374 0 0 0 -0.07597,0.03824 6.5121374,6.5121374 0 0 1 0.07597,-0.03824 z m -0.316259,0.167431 a 6.5121374,6.5121374 0 0 0 -0.05478,0.03152 6.5121374,6.5121374 0 0 1 0.05478,-0.03152 z m 18.955432,0.06615 a 16.717495,16.717495 0 0 1 0.160197,0.47284 16.717495,16.717495 0 0 0 -0.160197,-0.47284 z m -42.879036,0.110588 a 27.678803,27.678803 0 0 0 -0.03359,0.170532 27.678803,27.678803 0 0 1 0.03359,-0.170532 z m 30.751094,0.08062 a 6.5121374,6.5121374 0 0 1 0.07958,0.05426 6.5121374,6.5121374 0 0 0 -0.07958,-0.05426 z m -53.353332,0.435631 a 49.979399,49.979399 0 0 0 -0.01809,0.183967 49.979399,49.979399 0 0 1 0.01809,-0.183967 z m 11.204483,0.136943 a 38.829101,38.829101 0 0 0 -0.06356,0.535369 38.829101,38.829101 0 0 1 0.06356,-0.535369 z m 11.270115,0.01912 a 27.678803,27.678803 0 0 0 -0.02687,0.157615 27.678803,27.678803 0 0 1 0.02687,-0.157615 z m -0.08062,0.481626 a 27.678803,27.678803 0 0 0 -0.02274,0.146243 27.678803,27.678803 0 0 1 0.02274,-0.146243 z m 43.496568,0.05684 a 16.717495,16.717495 0 0 1 0.02481,0.09457 16.717495,16.717495 0 0 0 -0.02481,-0.09457 z m 0.08682,0.342615 a 16.717495,16.717495 0 0 1 0.02687,0.113172 16.717495,16.717495 0 0 0 -0.02687,-0.113172 z m -43.647982,0.02946 a 27.678803,27.678803 0 0 0 -0.01809,0.130225 27.678803,27.678803 0 0 1 0.01809,-0.130225 z m -22.429122,0.05736 a 49.979399,49.979399 0 0 0 -0.03669,0.511596 49.979399,49.979399 0 0 1 0.03669,-0.511596 z m 66.128779,0.132808 a 16.717495,16.717495 0 0 1 0.06511,0.298172 16.717495,16.717495 0 0 0 -0.06511,-0.298172 z m -21.655526,0.01705 a 6.5121374,6.5121374 0 0 0 -0.05426,0.07958 6.5121374,6.5121374 0 0 1 0.05426,-0.07958 z m 10.994678,0.442352 a 6.5121374,6.5121374 0 0 1 0.03152,0.05478 6.5121374,6.5121374 0 0 0 -0.03152,-0.05478 z m 0.160713,0.295071 a 6.5121374,6.5121374 0 0 1 0.03824,0.07597 6.5121374,6.5121374 0 0 0 -0.03824,-0.07597 z m -44.533713,0.27182 a 38.829101,38.829101 0 0 0 -0.03359,0.537951 38.829101,38.829101 0 0 1 0.03359,-0.537951 z m 55.28293,0.316259 a 16.717495,16.717495 0 0 1 0.04082,0.304374 16.717495,16.717495 0 0 0 -0.04082,-0.304374 z m 22.217246,0.142626 a 38.829101,38.829101 0 0 1 0.0119,0.212392 38.829101,38.829101 0 0 0 -0.0119,-0.212392 z m -32.490522,0.489376 a 6.5121374,6.5121374 0 0 1 0.01964,0.07183 6.5121374,6.5121374 0 0 0 -0.01964,-0.07183 z m 32.521012,0.125058 a 38.829101,38.829101 0 0 1 0.008,0.1881 38.829101,38.829101 0 0 0 -0.008,-0.1881 z m 0.008,0.202054 a 38.829101,38.829101 0 0 1 0.007,0.214974 38.829101,38.829101 0 0 0 -0.007,-0.214974 z m -66.446074,0.0031 a 27.678803,27.678803 0 0 0 -0.0093,0.196887 27.678803,27.678803 0 0 1 0.0093,-0.196887 z m -0.0093,0.196887 a 27.678803,27.678803 0 0 0 -0.0067,0.159163 27.678803,27.678803 0 0 1 0.0067,-0.159163 z M 17.772558,66.388712 a 49.979399,49.979399 0 0 0 -0.0057,0.214974 49.979399,49.979399 0 0 1 0.0057,-0.214974 z m 88.774422,0.254249 a 38.829101,38.829101 0 0 1 0.005,0.202054 38.829101,38.829101 0 0 0 -0.005,-0.202054 z m 0.005,0.202054 a 38.829101,38.829101 0 0 1 0.005,0.260448 38.829101,38.829101 0 0 0 -0.005,-0.260448 z m 0.005,0.287838 a 38.829101,38.829101 0 0 1 0.003,0.203089 38.829101,38.829101 0 0 0 -0.003,-0.203089 z m -45.308864,0.0052 a 6.5121374,6.5121374 0 0 0 -0.0067,0.07958 6.5121374,6.5121374 0 0 1 0.0067,-0.07958 z m -21.188886,0.07545 a 27.678803,27.678803 0 0 0 -0.0021,0.128156 27.678803,27.678803 0 0 1 0.0021,-0.128156 z m 21.166666,0.265615 a 6.5121374,6.5121374 0 0 0 -0.0021,0.0553 6.5121374,6.5121374 0 0 1 0.0021,-0.0553 z m 13.016259,0.453202 a 6.5121374,6.5121374 0 0 1 -0.0021,0.0553 6.5121374,6.5121374 0 0 0 0.0021,-0.0553 z m -45.33625,0.198437 a 38.829101,38.829101 0 0 0 0.0031,0.203089 38.829101,38.829101 0 0 1 -0.0031,-0.203089 z m 45.318682,0.118341 a 6.5121374,6.5121374 0 0 1 -0.0067,0.07958 6.5121374,6.5121374 0 0 0 0.0067,-0.07958 z m -45.315581,0.112138 a 38.829101,38.829101 0 0 0 0.0052,0.260448 38.829101,38.829101 0 0 1 -0.0052,-0.260448 z m 0.0052,0.260448 a 38.829101,38.829101 0 0 0 0.0052,0.202054 38.829101,38.829101 0 0 1 -0.0052,-0.202054 z m 66.47708,0.176218 a 27.678803,27.678803 0 0 1 -0.0062,0.152961 27.678803,27.678803 0 0 0 0.0062,-0.152961 z m -0.0062,0.152961 a 27.678803,27.678803 0 0 1 -0.01085,0.227377 27.678803,27.678803 0 0 0 0.01085,-0.227377 z m -0.01085,0.227377 a 27.678803,27.678803 0 0 1 -0.0124,0.219107 27.678803,27.678803 0 0 0 0.0124,-0.219107 z m 22.325252,-0.315227 a 49.979399,49.979399 0 0 1 -0.006,0.214974 49.979399,49.979399 0 0 0 0.006,-0.214974 z m -88.777009,0.07286 a 38.829101,38.829101 0 0 0 0.0072,0.214974 38.829101,38.829101 0 0 1 -0.0072,-0.214974 z m 0.0078,0.228928 a 38.829101,38.829101 0 0 0 0.0078,0.1881 38.829101,38.829101 0 0 1 -0.0078,-0.1881 z M 61.43966,69.4061 a 6.5121374,6.5121374 0 0 0 0.01964,0.07183 6.5121374,6.5121374 0 0 1 -0.01964,-0.07183 z m -32.482771,0.348813 a 38.829101,38.829101 0 0 0 0.01188,0.212392 38.829101,38.829101 0 0 1 -0.01188,-0.212392 z m 22.18831,0.05064 a 16.717495,16.717495 0 0 0 0.04082,0.304374 16.717495,16.717495 0 0 1 -0.04082,-0.304374 z m 44.165262,0.29714 a 27.678803,27.678803 0 0 1 -0.01757,0.196371 27.678803,27.678803 0 0 0 0.01757,-0.196371 z m -0.04341,0.461471 a 27.678803,27.678803 0 0 1 -0.01912,0.183967 27.678803,27.678803 0 0 0 0.01912,-0.183967 z m -33.370054,0.05788 a 6.5121374,6.5121374 0 0 0 0.03824,0.07596 6.5121374,6.5121374 0 0 1 -0.03824,-0.07596 z m 0.167431,0.316259 a 6.5121374,6.5121374 0 0 0 0.03152,0.05478 6.5121374,6.5121374 0 0 1 -0.03152,-0.05478 z m 55.536142,0.135393 a 49.979399,49.979399 0 0 1 -0.0367,0.511596 49.979399,49.979399 0 0 0 0.0367,-0.511596 z m -66.230579,0.08062 a 16.717495,16.717495 0 0 0 0.06511,0.298172 16.717495,16.717495 0 0 1 -0.06511,-0.298172 z m 21.774896,0.201538 a 6.5121374,6.5121374 0 0 1 -0.05426,0.07958 6.5121374,6.5121374 0 0 0 0.05426,-0.07958 z m -21.68498,0.203087 a 16.717495,16.717495 0 0 0 0.02687,0.113172 16.717495,16.717495 0 0 1 -0.02687,-0.113172 z m 43.665552,0.149346 a 27.678803,27.678803 0 0 1 -0.02791,0.185518 27.678803,27.678803 0 0 0 0.02791,-0.185518 z m -43.576668,0.211873 a 16.717495,16.717495 0 0 0 0.02481,0.09457 16.717495,16.717495 0 0 1 -0.02481,-0.09457 z m 65.933439,0.605131 a 49.979399,49.979399 0 0 1 -0.0181,0.183968 49.979399,49.979399 0 0 0 0.0181,-0.183968 z m -65.659555,0.337963 a 16.717495,16.717495 0 0 0 0.160197,0.47284 16.717495,16.717495 0 0 1 -0.160197,-0.47284 z m 12.208557,0.227378 a 6.5121374,6.5121374 0 0 0 0.07958,0.05426 6.5121374,6.5121374 0 0 1 -0.07958,-0.05426 z m 6.961849,0.280085 a 6.5121374,6.5121374 0 0 1 -0.05478,0.03152 6.5121374,6.5121374 0 0 0 0.05478,-0.03152 z m 46.391479,0.0801 a 49.979399,49.979399 0 0 1 -0.0584,0.484206 49.979399,49.979399 0 0 0 0.0584,-0.484206 z m -46.68655,0.08061 a 6.5121374,6.5121374 0 0 1 -0.07596,0.03824 6.5121374,6.5121374 0 0 0 0.07596,-0.03824 z M 94.752355,73.7402 a 27.678803,27.678803 0 0 1 -0.03721,0.164848 27.678803,27.678803 0 0 0 0.03721,-0.164848 z m -0.03721,0.164848 a 27.678803,27.678803 0 0 1 -0.05168,0.221692 27.678803,27.678803 0 0 0 0.05168,-0.221692 z m -0.05168,0.221692 a 27.678803,27.678803 0 0 1 -0.05323,0.221176 27.678803,27.678803 0 0 0 0.05323,-0.221176 z m -0.05323,0.221176 H 83.085883 a 16.717495,16.717495 0 0 1 -8.737967,8.738483 V 94.610244 A 27.678803,27.678803 0 0 0 94.610244,74.347916 Z M 69.477929,74.007368 a 6.5121374,6.5121374 0 0 1 -0.07183,0.01964 6.5121374,6.5121374 0 0 0 0.07183,-0.01964 z m -2.339909,0.210841 a 6.5121374,6.5121374 0 0 0 0.07958,0.0067 6.5121374,6.5121374 0 0 1 -0.07958,-0.0067 z m 0.341064,0.02222 a 6.5121374,6.5121374 0 0 0 0.0553,0.0021 6.5121374,6.5121374 0 0 1 -0.0553,-0.0021 z M 18.193721,74.347916 A 49.979399,49.979399 0 0 0 61.118749,117.27294 V 105.99456 A 38.829101,38.829101 0 0 1 29.472101,74.347916 Z m 22.6627,0 A 27.678803,27.678803 0 0 0 61.118749,94.610244 V 83.085883 a 16.717495,16.717495 0 0 1 -8.738483,-8.737967 z m 20.262328,20.262328 a 27.678803,27.678803 0 0 0 0.221176,0.05323 27.678803,27.678803 0 0 1 -0.221176,-0.05323 z m 0.221176,0.05323 a 27.678803,27.678803 0 0 0 0.221692,0.05168 27.678803,27.678803 0 0 1 -0.221692,-0.05168 z m 0.221692,0.05168 a 27.678803,27.678803 0 0 0 0.164848,0.03721 27.678803,27.678803 0 0 1 -0.164848,-0.03721 z M 105.99456,74.347916 A 38.829101,38.829101 0 0 1 74.347916,105.99456 v 11.27838 A 49.979399,49.979399 0 0 0 117.27294,74.347916 Z m -32.658469,9.135877 a 16.717495,16.717495 0 0 1 -0.47284,0.160197 16.717495,16.717495 0 0 0 0.47284,-0.160197 z m -1.321366,0.409276 a 16.717495,16.717495 0 0 1 -0.09457,0.02481 16.717495,16.717495 0 0 0 0.09457,-0.02481 z m -0.342615,0.08682 a 16.717495,16.717495 0 0 1 -0.113172,0.02687 16.717495,16.717495 0 0 0 0.113172,-0.02687 z m -0.219625,0.05167 a 16.717495,16.717495 0 0 1 -0.298172,0.06511 16.717495,16.717495 0 0 0 0.298172,-0.06511 z m -1.342554,0.249082 a 16.717495,16.717495 0 0 1 -0.304374,0.04082 16.717495,16.717495 0 0 0 0.304374,-0.04082 z m -6.537068,10.81691 a 27.678803,27.678803 0 0 0 0.185518,0.02791 27.678803,27.678803 0 0 1 -0.185518,-0.02791 z m 1.145667,0.150378 a 27.678803,27.678803 0 0 0 0.197921,0.02067 27.678803,27.678803 0 0 1 -0.197921,-0.02067 z m 0.213939,0.02222 a 27.678803,27.678803 0 0 0 0.187587,0.0186 27.678803,27.678803 0 0 1 -0.187587,-0.0186 z m 0.23358,0.02274 a 27.678803,27.678803 0 0 0 0.197919,0.01757 27.678803,27.678803 0 0 1 -0.197919,-0.01757 z m 0.903303,0.06925 a 27.678803,27.678803 0 0 0 0.219107,0.0124 27.678803,27.678803 0 0 1 -0.219107,-0.0124 z m 0.219107,0.0124 a 27.678803,27.678803 0 0 0 0.227377,0.01085 27.678803,27.678803 0 0 1 -0.227377,-0.01085 z m 0.227377,0.01085 a 27.678803,27.678803 0 0 0 0.152961,0.0062 27.678803,27.678803 0 0 1 -0.152961,-0.0062 z m 3.451469,11.112499 a 38.829101,38.829101 0 0 1 -0.212392,0.0119 38.829101,38.829101 0 0 0 0.212392,-0.0119 z m -0.614434,0.0305 a 38.829101,38.829101 0 0 1 -0.1881,0.008 38.829101,38.829101 0 0 0 0.1881,-0.008 z m -0.202054,0.008 a 38.829101,38.829101 0 0 1 -0.214974,0.007 38.829101,38.829101 0 0 0 0.214974,-0.007 z m -0.327113,0.0103 a 38.829101,38.829101 0 0 1 -0.202054,0.005 38.829101,38.829101 0 0 0 0.202054,-0.005 z m -0.202054,0.005 a 38.829101,38.829101 0 0 1 -0.260448,0.005 38.829101,38.829101 0 0 0 0.260448,-0.005 z m -0.287838,0.005 a 38.829101,38.829101 0 0 1 -0.203089,0.003 38.829101,38.829101 0 0 0 0.203089,-0.003 z m -6.802167,10.76885 a 49.979399,49.979399 0 0 0 0.484206,0.0584 49.979399,49.979399 0 0 1 -0.484206,-0.0584 z m 1.225764,0.13798 a 49.979399,49.979399 0 0 0 0.183967,0.0181 49.979399,49.979399 0 0 1 -0.183967,-0.0181 z m 1.123963,0.0997 a 49.979399,49.979399 0 0 0 0.511596,0.0367 49.979399,49.979399 0 0 1 -0.511596,-0.0367 z m 2.50734,0.13023 a 49.979399,49.979399 0 0 0 0.214974,0.006 49.979399,49.979399 0 0 1 -0.214974,-0.006 z" />
  </g>
</svg>
