<?xml version="1.0" encoding="UTF-8" standalone="no"?>
<svg
   xmlns:dc="http://purl.org/dc/elements/1.1/"
   xmlns:cc="http://creativecommons.org/ns#"
   xmlns:rdf="http://www.w3.org/1999/02/22-rdf-syntax-ns#"
   xmlns:svg="http://www.w3.org/2000/svg"
   xmlns="http://www.w3.org/2000/svg"
   width="184"
   height="184"
   viewBox="0 0 48.683332 48.683335"
   version="1.1"
   id="svg8">
  <defs
     id="defs2" />
  <metadata
     id="metadata5">
    <rdf:RDF>
      <cc:Work
         rdf:about="">
        <dc:format>image/svg+xml</dc:format>
        <dc:type
           rdf:resource="http://purl.org/dc/dcmitype/StillImage" />
        <dc:title></dc:title>
      </cc:Work>
    </rdf:RDF>
  </metadata>
  <g
     id="layer1">
    <path
       id="path847"
       style="fill:#ffffff;fill-opacity:1;stroke-width:7.11337;stroke-linecap:round"
       d="M 39.648438 5.3027344 C 58.395631 48.249083 95.55988 19.497674 110.73828 30.810547 C 113.7019 32.598598 116.1955 33.692289 114.7793 28.726562 C 91.50568 -1.451005 66.370302 25.394777 39.648438 5.3027344 z M 114.93359 39.427734 C 113.78632 39.450582 112.9078 39.556371 112.63281 39.775391 C 110.6811 41.329888 107.4668 97.728516 107.4668 97.728516 C 107.26102 100.03771 101.63141 101.24213 100.50391 98.353516 C 99.412186 95.556609 104.17011 75.97072 97.669922 79.107422 C 89.233839 83.666091 80.22019 100.15137 75.884766 99.078125 C 75.221855 92.333252 78.888005 76.665211 74.119141 79.423828 C 60.783682 87.137916 65.226715 94.306915 45.324219 101.77344 A 47.729709 45.456867 0 0 0 91.671875 136.37109 A 47.729709 45.456867 0 0 0 138.01758 101.77344 C 138.39992 101.63537 134.34982 100.1365 128.47852 99.152344 C 127.39459 98.970654 124.95163 41.304755 123.36523 40.34375 C 122.65772 39.915154 119.02271 39.4955 116.1582 39.431641 C 115.72853 39.422062 115.31602 39.420118 114.93359 39.427734 z M 152.4082 104.05664 C 151.5958 104.00488 150.891 104.45791 150.48828 105.45898 C 141.46551 129.64037 120.39334 147.62664 93.1875 148.24023 C 64.63265 147.42519 42.703189 130.81121 35.138672 106.30273 C 34.404985 103.92564 31.901002 103.81498 29.5625 106 L 12.001953 123.41602 C 11.545726 123.86853 11.664659 125.05749 12.322266 126.79102 C 12.979872 128.52456 17.032964 134.28603 18.732422 136.91797 C 20.43188 139.54992 29.330671 130.66087 32 133.80859 C 34.66933 136.95632 39.145672 141.96131 42.712891 145.24219 C 46.280111 148.52307 35.636167 155.61507 40.029297 158.64648 C 44.422426 161.6779 52.335364 167.07724 57.482422 169.47656 C 60.055952 170.67623 63.811474 158.33591 66.314453 159.17188 C 68.817433 160.00784 75.692918 161.70027 78.607422 162.39258 C 81.521925 163.08489 77.998819 176.03545 81.070312 176.40234 C 84.141806 176.76923 89.790279 177.67628 93.009766 177.66992 C 98.935555 177.65822 97.362415 177.92689 102.88086 176.52539 C 105.64008 175.82465 101.77869 163.56761 105.88867 162.3457 C 107.94365 161.73474 114.93887 158.32547 119.14258 160.45312 C 123.3463 162.58078 123.95536 171.49604 127.16992 169.55469 C 131.9214 166.68515 139.97947 162.07619 144.02734 158.62109 C 148.3118 154.96404 137.96908 148.05407 141.60547 144.78125 C 145.24186 141.50843 149.37503 136.87278 152.16406 133.74219 C 154.9531 130.6116 160.68423 139.43209 164.12305 136.91602 C 166.69333 135.03544 171.92318 128.58188 172.6875 126.88477 C 173.45182 125.18766 173.65524 124.04063 173.24219 123.63477 L 154.97461 105.68359 C 154.14048 104.66506 153.22061 104.10841 152.4082 104.05664 z "
       transform="scale(0.26458333)" />
  </g>
</svg>
