<?xml version="1.0" encoding="UTF-8" standalone="no"?>
<svg
   xmlns:dc="http://purl.org/dc/elements/1.1/"
   xmlns:cc="http://creativecommons.org/ns#"
   xmlns:rdf="http://www.w3.org/1999/02/22-rdf-syntax-ns#"
   xmlns:svg="http://www.w3.org/2000/svg"
   xmlns="http://www.w3.org/2000/svg"
   xmlns:sodipodi="http://sodipodi.sourceforge.net/DTD/sodipodi-0.dtd"
   xmlns:inkscape="http://www.inkscape.org/namespaces/inkscape"
   width="128"
   height="128"
   viewBox="0 0 33.866666 33.866668"
   version="1.1"
   id="svg8"
   inkscape:version="1.0.1 (3bc2e813f5, 2020-09-07)"
   sodipodi:docname="moon.svg">
  <defs
     id="defs2" />
  <sodipodi:namedview
     id="base"
     pagecolor="#ffffff"
     bordercolor="#666666"
     borderopacity="1.0"
     inkscape:pageopacity="0.0"
     inkscape:pageshadow="2"
     inkscape:zoom="0.49497475"
     inkscape:cx="-408.28828"
     inkscape:cy="-15.189027"
     inkscape:document-units="mm"
     inkscape:current-layer="layer1"
     inkscape:document-rotation="0"
     showgrid="false"
     units="px"
     inkscape:window-width="2560"
     inkscape:window-height="1387"
     inkscape:window-x="1912"
     inkscape:window-y="1072"
     inkscape:window-maximized="1" />
  <metadata
     id="metadata5">
    <rdf:RDF>
      <cc:Work
         rdf:about="">
        <dc:format>image/svg+xml</dc:format>
        <dc:type
           rdf:resource="http://purl.org/dc/dcmitype/StillImage" />
        <dc:title></dc:title>
      </cc:Work>
    </rdf:RDF>
  </metadata>
  <g
     inkscape:label="Layer 1"
     inkscape:groupmode="layer"
     id="layer1">
    <path
       id="path847"
       style="fill:#ffffff;fill-opacity:1;stroke-width:12.5678;stroke-linecap:round"
       d="M 64 8 A 56.000001 56.000001 0 0 0 8 64 A 56.000001 56.000001 0 0 0 64 120 A 56.000001 56.000001 0 0 0 120 64 A 56.000001 56.000001 0 0 0 64 8 z M 61.146484 20.039062 A 8.662205 11.000545 32.665586 0 1 65.138672 21.152344 A 8.662205 11.000545 32.665586 0 1 66.494141 35.087891 A 8.662205 11.000545 32.665586 0 1 53.263672 39.673828 A 8.662205 11.000545 32.665586 0 1 51.910156 25.736328 A 8.662205 11.000545 32.665586 0 1 61.146484 20.039062 z M 31.925781 34.804688 A 11.581969 13.942651 15.28607 0 1 34.59375 35.146484 A 11.581969 13.942651 15.28607 0 1 42.089844 51.648438 A 11.581969 13.942651 15.28607 0 1 27.242188 62.044922 A 11.581969 13.942651 15.28607 0 1 19.746094 45.541016 A 11.581969 13.942651 15.28607 0 1 31.925781 34.804688 z M 50.396484 55.515625 A 7.4317569 6.5572852 59.876867 0 1 56.664062 59.232422 A 7.4317569 6.5572852 59.876867 0 1 55.037109 69.050781 A 7.4317569 6.5572852 59.876867 0 1 45.576172 66.242188 A 7.4317569 6.5572852 59.876867 0 1 47.203125 56.423828 A 7.4317569 6.5572852 59.876867 0 1 50.396484 55.515625 z M 18.001953 64.015625 A 8.2592586 6.0284246 71.633444 0 1 18.195312 64.015625 A 8.2592586 6.0284246 71.633444 0 1 25.021484 70.181641 A 8.2592586 6.0284246 71.633444 0 1 21.902344 79.919922 A 8.2592586 6.0284246 71.633444 0 1 13.580078 73.980469 A 8.2592586 6.0284246 71.633444 0 1 16.699219 64.242188 A 8.2592586 6.0284246 71.633444 0 1 18.001953 64.015625 z M 37.373047 73.195312 A 10.471206 8.828796 56.477455 0 1 46.230469 78.126953 A 10.471206 8.828796 56.477455 0 1 44.941406 91.8125 A 10.471206 8.828796 56.477455 0 1 31.767578 88.259766 A 10.471206 8.828796 56.477455 0 1 33.054688 74.572266 A 10.471206 8.828796 56.477455 0 1 37.373047 73.195312 z M 67.388672 74.664062 A 12.852208 11.339928 52.647758 0 1 77.546875 79.763672 A 12.852208 11.339928 52.647758 0 1 76.892578 96.960938 A 12.852208 11.339928 52.647758 0 1 60.048828 94.199219 A 12.852208 11.339928 52.647758 0 1 60.703125 77 A 12.852208 11.339928 52.647758 0 1 67.388672 74.664062 z M 93.462891 89.667969 A 5.8121143 7.3810801 58.712438 0 1 98.339844 92.109375 A 5.8121143 7.3810801 58.712438 0 1 95.050781 100.9082 A 5.8121143 7.3810801 58.712438 0 1 85.724609 99.775391 A 5.8121143 7.3810801 58.712438 0 1 89.013672 90.974609 A 5.8121143 7.3810801 58.712438 0 1 93.462891 89.667969 z M 28.109375 92.457031 A 5.0059956 2.8406059 35.923575 0 1 31.755859 93.71875 A 5.0059956 2.8406059 35.923575 0 1 34.472656 98.984375 A 5.0059956 2.8406059 35.923575 0 1 28.902344 98.654297 A 5.0059956 2.8406059 35.923575 0 1 26.183594 93.388672 A 5.0059956 2.8406059 35.923575 0 1 28.109375 92.457031 z M 45.931641 104.25586 A 6.1597114 3.4952713 15.571152 0 1 48.339844 104.54883 A 6.1597114 3.4952713 15.571152 0 1 53.728516 109.46094 A 6.1597114 3.4952713 15.571152 0 1 47.160156 111.46484 A 6.1597114 3.4952713 15.571152 0 1 41.771484 106.55273 A 6.1597114 3.4952713 15.571152 0 1 45.931641 104.25586 z M 74.441406 105.94727 A 4.1763597 4.6279905 54.291793 0 1 78.380859 108.91016 A 4.1763597 4.6279905 54.291793 0 1 75.015625 114.39648 A 4.1763597 4.6279905 54.291793 0 1 69.648438 111.65625 A 4.1763597 4.6279905 54.291793 0 1 73.015625 106.17188 A 4.1763597 4.6279905 54.291793 0 1 74.441406 105.94727 z "
       transform="scale(0.26458333)" />
  </g>
</svg>
