<?xml version="1.0" encoding="UTF-8" standalone="no"?>
<svg
   xmlns:dc="http://purl.org/dc/elements/1.1/"
   xmlns:cc="http://creativecommons.org/ns#"
   xmlns:rdf="http://www.w3.org/1999/02/22-rdf-syntax-ns#"
   xmlns:svg="http://www.w3.org/2000/svg"
   xmlns="http://www.w3.org/2000/svg"
   xmlns:sodipodi="http://sodipodi.sourceforge.net/DTD/sodipodi-0.dtd"
   xmlns:inkscape="http://www.inkscape.org/namespaces/inkscape"
   width="128"
   height="128"
   viewBox="0 0 33.866666 33.866668"
   version="1.1"
   id="svg8"
   inkscape:version="1.0.1 (3bc2e813f5, 2020-09-07)"
   sodipodi:docname="debris-field-icon.svg">
  <defs
     id="defs2" />
  <sodipodi:namedview
     id="base"
     pagecolor="#ffffff"
     bordercolor="#666666"
     borderopacity="1.0"
     inkscape:pageopacity="0.0"
     inkscape:pageshadow="2"
     inkscape:zoom="0.24748737"
     inkscape:cx="-376.92615"
     inkscape:cy="-136.18031"
     inkscape:document-units="mm"
     inkscape:current-layer="layer1"
     inkscape:document-rotation="0"
     showgrid="false"
     units="px"
     inkscape:window-width="2560"
     inkscape:window-height="1387"
     inkscape:window-x="1912"
     inkscape:window-y="1072"
     inkscape:window-maximized="1" />
  <metadata
     id="metadata5">
    <rdf:RDF>
      <cc:Work
         rdf:about="">
        <dc:format>image/svg+xml</dc:format>
        <dc:type
           rdf:resource="http://purl.org/dc/dcmitype/StillImage" />
        <dc:title></dc:title>
      </cc:Work>
    </rdf:RDF>
  </metadata>
  <g
     inkscape:label="Layer 1"
     inkscape:groupmode="layer"
     id="layer1">
    <path
       id="path847"
       style="fill:#ffffff;fill-opacity:1;stroke:none;stroke-width:1.15555px;stroke-linecap:butt;stroke-linejoin:miter;stroke-opacity:1"
       d="M 24.244141 9.3710938 L 41.460938 76.490234 L 69.183594 54.3125 L 76.771484 26.589844 L 24.244141 9.3710938 z M 78.21875 10.044922 L 77.894531 56.068359 L 90.859375 50.558594 L 122.29883 24.953125 L 104.47266 11.339844 L 78.21875 10.044922 z M 109.71289 46.740234 L 89.515625 57.535156 L 117.02539 75.642578 L 120.50781 54.052734 L 109.71289 46.740234 z M 19.603516 49.263672 L 0.50585938 53.613281 L 36.871094 83.572266 L 35.523438 64.835938 L 19.603516 49.263672 z M 63.638672 66.921875 L 25.505859 93.439453 L 44.951172 112.63281 L 63.892578 107.32812 L 63.638672 66.921875 z M 102.76172 71.642578 L 68.373047 72.929688 L 76.408203 128.5293 L 123.00977 83.855469 L 102.76172 71.642578 z "
       transform="scale(0.26458333)" />
  </g>
</svg>
