<?xml version="1.0" encoding="UTF-8" standalone="no"?>
<svg
   xmlns:dc="http://purl.org/dc/elements/1.1/"
   xmlns:cc="http://creativecommons.org/ns#"
   xmlns:rdf="http://www.w3.org/1999/02/22-rdf-syntax-ns#"
   xmlns:svg="http://www.w3.org/2000/svg"
   xmlns="http://www.w3.org/2000/svg"
   width="512"
   height="512"
   viewBox="0 0 135.46666 135.46667"
   version="1.1"
   id="svg8">
  <defs
     id="defs2" />
  <metadata
     id="metadata5">
    <rdf:RDF>
      <cc:Work
         rdf:about="">
        <dc:format>image/svg+xml</dc:format>
        <dc:type
           rdf:resource="http://purl.org/dc/dcmitype/StillImage" />
        <dc:title></dc:title>
      </cc:Work>
    </rdf:RDF>
  </metadata>
  <g
     id="layer1">
    <g
       id="g943"
       transform="matrix(1.3754473,0,0,1.3754473,-25.512851,-24.434018)">
      <path
         id="circle922"
         style="fill:#ffffff;fill-opacity:1;stroke-width:0.138906;stroke-linecap:round"
         d="m 68.32606,39.288475 a 25.79151,25.79151 0 0 0 -25.696621,25.791563 25.79151,25.79151 0 0 0 3.154846,12.359901 c 7.258632,-1.242674 15.697375,-3.266392 24.551473,-6.011487 8.897985,-2.758692 17.035341,-5.881464 23.742219,-8.978209 a 25.79151,25.79151 0 0 0 -25.656831,-23.161768 25.79151,25.79151 0 0 0 -0.09509,0 z m 25.754502,28.394491 c -6.51478,2.896862 -14.104961,5.743057 -22.334553,8.294542 -8.186696,2.538165 -16.01832,4.479133 -23.002214,5.775837 a 25.79151,25.79151 0 0 0 19.677351,9.117739 25.79151,25.79151 0 0 0 25.659416,-23.188118 z" />
      <path
         id="path889"
         style="color:#ffffff;font-style:normal;font-variant:normal;font-weight:normal;font-stretch:normal;font-size:medium;line-height:normal;font-family:sans-serif;font-variant-ligatures:normal;font-variant-position:normal;font-variant-caps:normal;font-variant-numeric:normal;font-variant-alternates:normal;font-variant-east-asian:normal;font-feature-settings:normal;font-variation-settings:normal;text-indent:0;text-align:start;text-decoration:none;text-decoration-line:none;text-decoration-style:solid;text-decoration-color:#ffffff;letter-spacing:normal;word-spacing:normal;text-transform:none;writing-mode:lr-tb;direction:ltr;text-orientation:mixed;dominant-baseline:auto;baseline-shift:baseline;text-anchor:start;white-space:normal;shape-padding:0;shape-margin:0;inline-size:0;clip-rule:nonzero;display:inline;overflow:visible;visibility:visible;opacity:1;isolation:auto;mix-blend-mode:normal;color-interpolation:sRGB;color-interpolation-filters:linearRGB;solid-color:#ffffff;solid-opacity:1;vector-effect:none;fill:#ffffff;fill-opacity:1;fill-rule:nonzero;stroke:none;stroke-width:9;stroke-linecap:round;stroke-linejoin:miter;stroke-miterlimit:4;stroke-dasharray:none;stroke-dashoffset:0;stroke-opacity:1;color-rendering:auto;image-rendering:auto;shape-rendering:auto;text-rendering:auto;enable-background:accumulate;stop-color:#ffffff;stop-opacity:1"
         d="m 396.14258,170.1582 c -7.11999,-0.0428 -15.02068,0.33907 -23.6211,1.11328 -10.48746,0.94412 -22.01659,2.48959 -34.34375,4.59961 2.27337,2.5816 4.41979,5.27228 6.43165,8.0625 10.2691,-1.65982 19.90457,-2.90574 28.71874,-3.69921 16.73425,-1.50649 30.60248,-1.39756 40.2461,0.23632 4.82181,0.81695 8.56223,2.03024 10.99609,3.38282 1.18265,0.65723 2.02058,1.29961 2.61914,1.92773 0.63324,0.66453 0.99738,1.3147 1.19532,1.95313 0.38503,1.24187 0.29068,2.86328 -0.95118,5.35546 -1.24186,2.49219 -3.63836,5.61038 -7.15234,9.01172 -7.02797,6.8027 -18.40321,14.7367 -33.05469,22.96094 -29.30294,16.44848 -71.74462,34.22268 -120.05664,49.20117 -42.27302,13.10618 -82.05531,21.90781 -113.76172,25.92188 -4.5295,0.57339 -8.89456,1.04721 -13.07812,1.42383 -0.27339,0.0246 -0.53479,0.0427 -0.80664,0.0664 -1.52735,0.13341 -3.03028,0.25313 -4.50782,0.35938 -0.71238,0.0513 -1.41088,0.0956 -2.11132,0.14062 -1.15494,0.0741 -2.29438,0.14021 -3.41602,0.19727 -0.58489,0.0299 -1.17242,0.0607 -1.74805,0.0859 0.53188,-0.0232 1.07544,-0.0509 1.61524,-0.0781 -0.54031,0.0272 -1.08286,0.0549 -1.61524,0.0781 -0.008,3.4e-4 -0.0157,0.002 -0.0234,0.002 -11.13077,0.48501 -20.5295,0.11461 -27.62696,-1.08789 -4.821801,-0.81695 -8.568074,-2.03024 -11.001949,-3.38282 -1.568092,-1.01515 -3.305068,-2.32018 -3.833983,-3.959 -0.35743,-1.23189 -0.245556,-2.8366 0.970703,-5.27734 1.241859,-2.49218 3.646171,-5.61235 7.160157,-9.01368 7.027962,-6.8027 18.395402,-14.73473 33.046872,-22.95898 7.81802,-4.38845 16.59736,-8.87198 26.14844,-13.37109 0.0829,-3.43983 0.33323,-6.87358 0.75,-10.28907 -11.51062,5.29252 -22.01676,10.60005 -31.30274,15.8125 -15.05997,8.45355 -26.92328,16.61648 -34.900385,24.33789 -3.988554,3.86069 -7.031212,7.60987 -8.955078,11.47071 -1.919494,3.85207 -2.714268,8.05859 -1.5,12.00586 0.0028,0.009 0.0031,0.0184 0.0059,0.0273 1.226215,3.95506 4.268551,6.98274 8.039063,9.07813 3.770511,2.09537 8.401997,3.4653 13.875,4.39257 10.946,1.85456 25.34412,1.87465 42.54492,0.32618 34.4016,-3.09695 79.89001,-12.58027 128.69922,-27.71289 48.80921,-15.13264 91.67497,-33.04213 121.79492,-49.94922 15.05997,-8.45355 26.92914,-16.61844 34.90625,-24.33985 3.98855,-3.8607 7.03317,-7.60986 8.95703,-11.4707 1.92387,-3.86085 2.71254,-8.07619 1.48633,-12.03125 -0.24339,-0.76877 -0.56624,-1.43489 -0.88672,-2.10547 -1.51601,-2.93625 -4.07718,-5.27001 -7.14453,-6.97461 -3.7705,-2.09538 -8.40198,-3.4653 -13.875,-4.39258 -5.47302,-0.92727 -11.81165,-1.39473 -18.93164,-1.4375 z M 134.87109,302.04688 c -0.58748,0.0419 -1.16284,0.0776 -1.74218,0.11523 0.57901,-0.0376 1.15504,-0.0733 1.74218,-0.11523 z"
         transform="scale(0.26458333)" />
    </g>
    <circle
       style="fill:#ffffff;fill-opacity:1;stroke-width:0.0508021;stroke-linecap:round"
       id="circle849"
       cx="19.754068"
       cy="29.813417"
       r="9.4327145" />
  </g>
</svg>
