<?xml version="1.0" encoding="UTF-8" standalone="no"?>
<svg
   width="512"
   height="512"
   viewBox="0 0 135.46666 135.46667"
   version="1.1"
   id="svg8"
   sodipodi:docname="dna.svg"
   inkscape:version="1.2.2 (732a01da63, 2022-12-09)"
   xmlns:inkscape="http://www.inkscape.org/namespaces/inkscape"
   xmlns:sodipodi="http://sodipodi.sourceforge.net/DTD/sodipodi-0.dtd"
   xmlns="http://www.w3.org/2000/svg"
   xmlns:svg="http://www.w3.org/2000/svg"
   xmlns:rdf="http://www.w3.org/1999/02/22-rdf-syntax-ns#"
   xmlns:cc="http://creativecommons.org/ns#"
   xmlns:dc="http://purl.org/dc/elements/1.1/">
  <sodipodi:namedview
     pagecolor="#ffffff"
     bordercolor="#666666"
     borderopacity="1"
     objecttolerance="10"
     gridtolerance="10"
     guidetolerance="10"
     inkscape:pageopacity="0"
     inkscape:pageshadow="2"
     inkscape:window-width="2560"
     inkscape:window-height="1369"
     id="namedview851"
     showgrid="false"
     inkscape:zoom="0.65429688"
     inkscape:cx="406.54328"
     inkscape:cy="490.60298"
     inkscape:window-x="2552"
     inkscape:window-y="1072"
     inkscape:window-maximized="1"
     inkscape:current-layer="svg8"
     inkscape:showpageshadow="2"
     inkscape:pagecheckerboard="0"
     inkscape:deskcolor="#d1d1d1" />
  <defs
     id="defs2" />
  <metadata
     id="metadata5">
    <rdf:RDF>
      <cc:Work
         rdf:about="">
        <dc:format>image/svg+xml</dc:format>
        <dc:type
           rdf:resource="http://purl.org/dc/dcmitype/StillImage" />
      </cc:Work>
    </rdf:RDF>
  </metadata>
  <path
     id="pTzTosyTA"
     d="m 80.187175,10.812542 c -0.583929,0.0076 -1.072573,0.38383 -1.729799,1.093829 -3.365533,3.545868 -3.30543,3.966566 1.321782,7.692743 2.313728,1.833147 2.914759,1.803095 4.747906,-0.149036 2.764502,-3.004988 2.644296,-3.696126 -1.082345,-6.761217 -1.605195,-1.284645 -2.507964,-1.884699 -3.257544,-1.875171 z m -0.21989,2.303222 c 0.50819,0.0076 1.1532,0.473252 2.250205,1.404851 1.082346,0.931599 1.983893,1.923302 1.983893,2.193522 0,0.300516 -0.329834,0.901548 -0.752511,1.352321 -0.420234,0.450774 -0.811149,0.811393 -0.840467,0.811393 -0.244322,0 -2.103611,-1.352321 -3.215276,-2.343779 l -1.3511,-1.202064 0.510633,-0.871496 c 0.539951,-0.901548 0.908877,-1.352322 1.417067,-1.344748 z m -7.606228,8.166019 c -0.361596,0 -0.78183,2.163715 -0.63035,3.12517 0.329834,1.622786 1.622297,1.712941 1.651615,0.0904 0,-0.631083 0.300516,-0.57098 4.507495,0.841445 l 2.854901,0.961651 0.329834,-0.9316 c 0.171025,-0.510877 0.271197,-1.021754 0.146593,-1.111909 -0.146593,-0.180798 -8.504111,-2.974936 -8.864486,-2.974936 z m 19.953034,1.803096 v 1.502579 1.50258 h 1.50258 1.502579 v -1.50258 -1.502579 h -1.502579 z m 3.004915,3.305479 v 1.502579 1.50258 h 1.502579 1.50258 v -1.50258 -1.502579 h -1.50258 z m -12.320419,1.202064 v 1.502579 1.50258 h 1.502579 1.50258 v -1.50258 -1.502579 h -1.50258 z m -4.746441,1.598598 c -1.793323,0.0016 -6.507269,0.84291 -7.033049,1.316406 -0.962629,0.871496 -0.449553,5.52915 0.69143,6.490752 0.78183,0.631084 1.140984,0.631084 4.777959,0.06108 3.726153,-0.601032 4.05672,-0.9316 3.756204,-3.876435 -0.219889,-2.373832 -0.752511,-3.666075 -1.622297,-3.936514 -0.122161,-0.03665 -0.312732,-0.05375 -0.56927,-0.05375 z m 20.37229,0.20523 v 1.502579 1.50258 h 1.502584 1.50258 v -1.50258 -1.502579 h -1.50258 z m -12.320419,1.202064 v 1.502579 1.50258 h 1.50258 1.502579 v -1.50258 -1.502579 h -1.502579 z m -8.846894,0.93844 c 0.244321,-6.35e-4 0.430006,0.01559 0.522848,0.05375 0.630351,0.239435 0.962628,2.283676 0.449553,2.794651 -0.21989,0.210117 -1.531899,0.480825 -2.974864,0.601032 l -2.614244,0.210117 -0.219889,-1.292219 c -0.122161,-0.721238 -0.09773,-1.382373 0.09773,-1.562683 0.305402,-0.30418 3.410977,-0.801131 4.735177,-0.804551 z m 24.172477,1.165171 v 1.502579 1.50258 h 1.50257 1.50258 v -1.50258 -1.502579 h -1.50258 z m -12.320448,1.202063 v 1.50258 1.502579 h 1.502579 1.50258 v -1.502579 -1.50258 h -1.50258 z m 15.625878,1.803096 v 1.502579 1.50258 h 1.50258 1.50257 v -1.50258 -1.502579 h -1.50257 z m -12.320447,1.202063 v 1.50258 1.502579 h 1.502579 1.50258 v -1.502579 -1.50258 h -1.50258 z m 15.325337,2.103612 v 1.502579 1.50258 h 1.50258 1.50258 v -1.50258 -1.502579 h -1.50258 z m -48.279471,0.326902 c -0.35671,0.0015 -0.825808,0.03665 -1.483034,0.09284 -3.816308,0.300516 -4.086772,0.691186 -3.726153,5.25871 0.21989,2.794627 0.300516,3.12517 1.050584,3.816308 0.78183,0.721238 0.962628,0.75129 2.974863,0.57098 2.164692,-0.210117 3.365534,-0.721238 3.696102,-1.532631 0.09773,-0.239435 0.04886,-1.862954 -0.04887,-3.635998 -0.17102,-2.824675 -0.300511,-3.275425 -0.962623,-3.936535 -0.476428,-0.475206 -0.708533,-0.637925 -1.492807,-0.634504 z m 35.959048,0.874917 v 1.502579 1.50258 h 1.50258 1.502579 v -1.50258 -1.502579 h -1.502579 z m -27.218189,0.430984 c -1.155642,-4.16e-4 -1.92037,1.126079 -2.831446,4.016505 -0.481314,1.592734 -0.901548,3.095142 -0.901548,3.365582 0,0.811393 1.321781,1.803096 3.185224,2.403883 0.991947,0.330568 2.013213,0.57098 2.313728,0.57098 0.840468,0.02932 1.922814,-1.262166 2.313729,-2.704496 0.171025,-0.721238 0.539951,-1.833147 0.78183,-2.464084 0.571713,-1.532631 0.539951,-3.035015 -0.09773,-3.545868 C 72.625143,41.837291 70.4304,41.025898 68.83791,40.69533 68.691317,40.66357 68.534951,40.64647 68.393244,40.64647 Z m -9.932173,0.489865 c 1.040812,-0.0056 1.255815,0.671885 1.451272,3.015787 0.122161,1.382373 0.122161,2.614317 0,2.734524 -0.361596,0.330567 -2.284409,0.57098 -2.674347,0.300516 -0.244322,-0.15148 -0.481314,-1.32227 -0.571713,-2.974937 l -0.21989,-2.764575 1.140983,-0.210117 c 0.337165,-0.06108 0.623021,-0.100172 0.862457,-0.100172 z m 52.776215,0.882246 v 1.50258 1.502579 h 1.50258 1.50258 v -1.502579 -1.50258 h -1.50258 z m -42.053172,0.623265 c 0.559497,-9.52e-4 1.336441,0.269732 1.876392,0.668709 0.539951,0.36062 0.539951,0.480826 -0.300516,2.914834 -0.78183,2.403883 -0.901548,2.554238 -1.773777,2.644393 -0.601032,0.06108 -1.082346,-0.119718 -1.441499,-0.510877 -0.539951,-0.601032 -0.539951,-0.691187 0.122161,-3.065067 0.390915,-1.32227 0.872229,-2.494135 1.111665,-2.58429 0.122161,-0.04642 0.251651,-0.06841 0.408017,-0.06841 z m 29.73275,0.578799 v 1.502579 1.50258 h 1.502582 1.50258 v -1.50258 -1.502579 h -1.50258 z m -51.925971,0.149036 -0.901548,0.841445 c -1.021266,0.961651 -1.441499,2.464084 -0.901548,3.12517 0.271197,0.360619 0.449552,0.300516 0.991947,-0.390671 l 0.63035,-0.781341 2.524334,2.734548 c 1.382862,1.502579 2.614244,2.734523 2.704399,2.734523 0.122161,0 0.481314,-0.300515 0.840467,-0.691186 l 0.662112,-0.691187 -3.275623,-3.455713 z m 31.664114,1.392879 c -0.56194,-0.01077 -1.006606,0.15881 -1.373089,0.500127 -0.662112,0.631084 -3.005159,5.469072 -3.005159,6.220313 0,0.961651 0.63035,1.652837 2.343047,2.554214 2.162248,1.111909 3.696101,1.172012 4.477442,0.210117 0.300516,-0.390671 1.082346,-1.893006 1.712697,-3.335507 1.502579,-3.365582 1.382861,-3.846383 -1.292463,-5.198632 -1.216723,-0.625464 -2.14026,-0.936974 -2.863208,-0.9509 z m 40.124739,1.041056 -0.78183,0.721238 c -0.96263,0.901548 -1.47326,2.644393 -0.99195,3.245376 0.30052,0.360619 0.452,0.300516 0.99195,-0.360619 l 0.63035,-0.781341 2.67459,2.704472 c 1.47326,1.502579 2.73445,2.704496 2.7645,2.704496 0.0244,0 0.39092,-0.300516 0.81115,-0.691186 l 0.75251,-0.691187 -3.42564,-3.425661 z m -16.85772,0.721238 v 1.502579 1.50258 h 1.50258 1.50258 v -1.50258 -1.502579 h -1.50258 z m -22.843609,0.185685 c 0.654782,-5.62e-4 2.128043,0.733942 2.318614,1.196932 0.09773,0.239436 -0.300516,1.442477 -0.840467,2.674421 -0.571713,1.232115 -1.172745,2.283676 -1.3511,2.344024 -0.481314,0.210117 -2.223329,-0.601032 -2.404127,-1.141961 -0.21989,-0.510877 1.592978,-4.868064 2.103611,-5.048349 0.04886,-0.01681 0.09773,-0.02443 0.171025,-0.02443 z m 8.706654,2.080889 c -0.811149,0.0036 -1.522125,0.245543 -1.79088,0.738585 -0.244321,0.450774 -0.12216,0.57098 0.601032,0.721238 0.510633,0.0904 0.901548,0.300516 0.901548,0.450774 0,0.149036 -0.601032,1.742992 -1.3511,3.515816 -1.260701,3.03504 -1.321781,3.30548 -0.840467,3.636023 1.050584,0.781341 1.502579,0.450773 2.343047,-1.622786 0.481314,-1.141961 1.292462,-3.035015 1.864175,-4.267057 0.571714,-1.202064 0.991947,-2.25387 0.930867,-2.283677 -0.686545,-0.59077 -1.737129,-0.892996 -2.657734,-0.888843 z m 26.247005,1.339617 c -0.0977,0 -0.53995,0.270464 -1.02126,0.631083 -1.05058,0.721238 -1.83241,2.133419 -1.59298,2.794627 0.24432,0.631083 0.39092,0.601032 1.20206,-0.15148 l 0.69144,-0.631083 2.04253,3.185273 c 1.11166,1.742992 2.19401,3.185298 2.34304,3.185298 0.51064,-0.02932 1.3511,-0.781342 1.3511,-1.232116 0,-0.39067 -4.77796,-7.782897 -5.01812,-7.782897 z m -19.3691,1.28269 c -1.314452,0.0029 -1.773777,0.926957 -2.657489,3.795784 -0.481314,1.622786 -0.901548,3.215325 -0.901548,3.545868 0,0.811393 0.991947,1.652837 2.64454,2.253625 1.651616,0.57098 3.155173,0.661135 3.966566,0.239435 0.69143,-0.360619 2.494041,-5.859693 2.343051,-7.091735 -0.122166,-1.081857 -1.202068,-1.803096 -3.5759,-2.433935 -0.757397,-0.190571 -1.34377,-0.311021 -1.820198,-0.310044 z m -52.224533,0.246276 c -0.803819,-0.0038 -1.292463,0.168582 -1.607638,0.514542 -0.991947,1.081857 -1.473261,5.168556 -0.720749,6.190236 0.271197,0.36062 1.292462,0.75129 2.794553,1.081858 5.318887,1.202063 6.160332,0.721238 6.640913,-3.906487 0.21989,-2.16347 -0.300516,-2.614317 -3.605946,-3.335507 -1.57832,-0.360619 -2.696825,-0.540928 -3.500644,-0.544593 z m 52.4217,1.926967 1.172745,0.02932 c 1.952132,0.06108 2.103612,0.510877 1.140984,3.425662 -0.872229,2.764599 -1.111665,2.944884 -2.674592,2.253869 -1.172745,-0.510877 -1.231382,-0.961651 -0.271197,-3.756229 z m 12.456993,0.06841 c -0.25165,0.002 -0.52529,0.01002 -0.82825,0.02121 -3.81631,0.119718 -4.23703,0.721238 -3.81631,5.679408 0.1466,1.833147 0.3616,2.674421 0.84047,3.275428 0.60103,0.75129 0.69143,0.781341 3.09507,0.661135 3.78626,-0.210117 4.08677,-0.661135 3.66605,-5.348841 -0.32739,-3.75811 -0.53018,-4.307859 -2.95849,-4.288459 z m -64.83838,0.259958 c 1.035925,-0.0192 4.557336,0.732477 4.992962,1.113619 0.420234,0.330568 0.244322,1.862955 -0.300516,2.554239 -0.171025,0.180798 -0.481314,0.360619 -0.662112,0.330567 -1.021266,-0.0904 -4.567598,-0.961651 -4.80801,-1.172012 -0.361597,-0.330567 0.09773,-2.614341 0.539951,-2.794627 0.04886,-0.01959 0.122161,-0.02932 0.244322,-0.03176 z m 18.575548,0.122161 v 1.50258 1.502579 h 1.502579 1.50258 v -1.502579 -1.50258 h -1.50258 z m 3.004914,3.004964 v 1.502579 1.50258 h 1.50258 1.502579 v -1.50258 -1.502579 h -1.502579 z m 3.004915,3.004988 v 1.502579 1.50258 h 1.50258 1.502579 v -1.50258 -1.502579 h -1.502579 z m 37.712543,-4.357212 h 1.50258 1.50258 l 0.2712,2.644369 c 0.24432,2.193521 0.21989,2.704472 -0.14659,2.944885 -0.24433,0.151479 -0.93087,0.270464 -1.5319,0.270464 -1.32178,0 -1.38286,-0.180798 -1.50258,-3.605971 z m -53.638908,2.253625 v 1.502579 1.50258 h 1.502579 1.50258 v -1.50258 -1.502579 h -1.50258 z m 3.30543,3.305479 v 1.50258 1.502579 h 1.50258 1.502579 v -1.502579 -1.50258 h -1.502579 z m 28.457146,1.50258 c -0.09773,0 0.146593,0.901547 0.571713,2.013212 1.3511,3.575919 2.704399,10.908067 2.013212,10.908067 -0.122161,0 -3.005159,-2.764575 -6.400744,-6.160209 -6.069933,-6.100082 -6.160088,-6.160185 -7.422254,-6.160185 h -1.292463 v 1.262167 c 0,1.262166 0.04886,1.352321 7.091931,8.38388 l 7.091686,7.091736 -0.451995,0.871496 c -1.712696,3.245376 -6.490899,5.018322 -11.629232,4.32716 C 67.972767,84.687315 64.787543,83.575651 56.25338,79.669042 40.296963,72.366945 31.161769,70.083171 24.641062,71.735911 c -2.374808,0.631083 -6.430796,2.464083 -7.422498,3.365582 -0.329835,0.330568 -0.691431,0.57098 -0.811149,0.57098 -0.329834,0 -3.667271,2.914589 -5.228732,4.327161 l -1.3511,1.382373 15.475592,15.47564 15.956661,15.475643 2.374808,-2.34403 L 31.254122,97.398405 18.843549,84.987856 c 6.756965,-6.093192 12.170894,-5.130833 21.425562,-2.554239 3.275379,1.172012 14.213424,5.679408 15.776107,6.490777 1.082346,0.57098 5.82952,2.464059 8.774576,3.455713 4.267081,1.472528 6.640912,1.923057 10.337014,1.923057 6.040125,0 10.397361,-1.712696 14.093462,-5.499099 3.605947,-3.726177 5.168385,-7.903104 5.168385,-13.792849 0,-3.035039 -0.571713,-6.851347 -1.231382,-8.083389 -0.122161,-0.239435 -0.811149,-0.631083 -1.531898,-0.841444 -0.72075,-0.210117 -2.91476,-1.051806 -4.928217,-1.863199 -2.013212,-0.811393 -3.726152,-1.472528 -3.816307,-1.472528 z M 46.466824,62.94648 c -0.630351,0.0025 -1.414624,0.05131 -2.411457,0.13682 -3.395586,0.300516 -4.327185,0.691187 -4.327185,1.833147 0,1.021754 1.231382,4.297133 1.893495,5.018323 0.63035,0.691186 0.752511,0.691186 4.086771,0.540928 3.726398,-0.210116 4.838062,-0.631083 4.838062,-1.803095 0,-0.961651 -0.872229,-3.816332 -1.382862,-4.657728 -0.495973,-0.777432 -1.087232,-1.073794 -2.695847,-1.067442 z m 13.619966,1.778175 -2.245318,2.362837 14.46019,14.295174 2.28441,-2.223573 z m -14.753376,0.472518 c 0.21989,0.0013 0.434893,0.0071 0.64501,0.0181 l 1.983894,0.0904 0.271197,1.14196 c 0.171025,0.721238 0.171025,1.262167 0,1.442476 -0.146593,0.149037 -1.441499,0.360619 -2.82485,0.480826 -2.854656,0.180798 -3.185224,0.02932 -3.335482,-1.712941 -0.09773,-0.901548 0,-1.021754 0.901548,-1.262167 0.439779,-0.122161 1.414624,-0.20523 2.360149,-0.1979 z M 30.952385,84.086992 28.909854,86.22041 40.779499,98.510778 c 0,0 11.869645,12.110062 11.869645,12.380502 0,0.75129 -3.065262,5.13852 -4.507494,6.43064 l -1.231382,1.11191 3.095069,3.12517 c 1.683378,1.71294 3.185469,3.09512 3.275623,3.09512 0.359154,0 4.927973,-5.0183 5.378746,-5.91979 0.244322,-0.45078 0.630351,-1.02176 0.840468,-1.26217 0.78183,-0.81139 2.764502,-5.13851 3.365533,-7.3021 0.78183,-2.82468 0.752512,-6.07005 -0.09773,-10.12677 -0.630351,-3.004967 -0.691431,-3.155225 -1.56366,-3.425689 -1.773777,-0.57098 -7.842977,-2.914784 -8.624318,-3.395585 -0.481314,-0.239436 -0.840467,-0.390671 -0.840467,-0.330568 0,0.06108 0.390915,1.292218 0.901547,2.764575 0.481315,1.472528 1.111665,3.636023 1.3511,4.838017 0.510633,2.43393 0.601032,5.70946 0.171026,5.94984 -0.146593,0.0904 -11.539078,-11.088348 -11.539078,-11.088348 z"
     style="stroke-width:0.0300499" />
</svg>
